<!-- Generated by IcoMoon.io -->
<svg version="1.1" xmlns="http://www.w3.org/2000/svg" width="32" height="32" viewBox="0 0 32 32">
<title>calendar</title>
<path d="M7.404 18.026h3.048v-3.048h-3.048z"></path>
<path d="M14.010 18.026h3.048v-3.048h-3.048z"></path>
<path d="M20.616 18.026h3.048v-3.048h-3.048z"></path>
<path d="M7.404 23.734h3.048v-3.048h-3.048z"></path>
<path d="M14.010 23.734h3.048v-3.048h-3.048z"></path>
<path d="M20.616 23.734h3.048v-3.048h-3.048z"></path>
<path d="M3.241 27.475v-16.303h24.187v16.303h-24.187zM24.241 5.209v-4.512c0-0.386-0.312-0.698-0.698-0.698h-2.414c-0.386 0-0.698 0.312-0.698 0.698v4.512h-10.193v-4.512c0-0.386-0.312-0.698-0.698-0.698h-2.414c-0.386 0-0.698 0.312-0.698 0.698v4.512h-5.652c-0.428 0-0.777 0.347-0.777 0.777v24.73h30.67v-24.73c0-0.43-0.349-0.777-0.777-0.777h-5.652z"></path>
</svg>
