<!-- Generated by IcoMoon.io -->
<svg version="1.1" xmlns="http://www.w3.org/2000/svg" width="32" height="32" viewBox="0 0 32 32">
<title>give</title>
<path d="M20.452 22.701c-0.805 0.894-1.85 1.445-3.136 1.654v2.123c0 0.114-0.035 0.206-0.109 0.278-0.072 0.074-0.166 0.11-0.278 0.11h-1.638c-0.104 0-0.197-0.038-0.272-0.117-0.077-0.077-0.117-0.166-0.117-0.272v-2.123c-0.533-0.072-1.048-0.197-1.546-0.374-0.498-0.179-0.907-0.358-1.23-0.541-0.323-0.181-0.624-0.374-0.899-0.581-0.274-0.206-0.462-0.358-0.562-0.456-0.102-0.096-0.173-0.17-0.213-0.218-0.138-0.171-0.147-0.336-0.026-0.498l1.251-1.637c0.056-0.082 0.147-0.13 0.277-0.146 0.123-0.018 0.219 0.021 0.291 0.107l0.026 0.026c0.914 0.8 1.896 1.306 2.947 1.515 0.299 0.066 0.598 0.098 0.896 0.098 0.656 0 1.232-0.174 1.73-0.52 0.498-0.349 0.746-0.843 0.746-1.48 0-0.227-0.061-0.442-0.181-0.645-0.123-0.202-0.258-0.371-0.406-0.509-0.15-0.138-0.387-0.29-0.71-0.454-0.325-0.166-0.59-0.296-0.802-0.387-0.208-0.094-0.533-0.226-0.97-0.395-0.315-0.128-0.565-0.23-0.746-0.304-0.182-0.072-0.43-0.179-0.746-0.32-0.315-0.142-0.568-0.267-0.758-0.376-0.189-0.11-0.419-0.254-0.685-0.43-0.267-0.178-0.483-0.35-0.65-0.515-0.166-0.166-0.341-0.365-0.526-0.595-0.187-0.23-0.33-0.464-0.432-0.704-0.099-0.238-0.186-0.507-0.254-0.806s-0.104-0.613-0.104-0.946c0-1.117 0.398-2.094 1.19-2.934 0.792-0.842 1.822-1.384 3.091-1.626v-2.182c0-0.107 0.040-0.197 0.117-0.274 0.075-0.077 0.168-0.115 0.272-0.115h1.638c0.112 0 0.206 0.037 0.278 0.109 0.074 0.074 0.109 0.165 0.109 0.28v2.134c0.461 0.048 0.907 0.141 1.341 0.278 0.432 0.136 0.784 0.272 1.054 0.405 0.272 0.134 0.528 0.286 0.771 0.456 0.242 0.17 0.4 0.286 0.472 0.352 0.072 0.064 0.133 0.12 0.182 0.17 0.138 0.146 0.157 0.299 0.061 0.461l-0.982 1.77c-0.064 0.122-0.158 0.187-0.278 0.195-0.115 0.024-0.224-0.005-0.328-0.085-0.026-0.024-0.083-0.072-0.176-0.146-0.093-0.072-0.251-0.179-0.474-0.32-0.222-0.142-0.459-0.272-0.709-0.39-0.251-0.117-0.552-0.221-0.904-0.315-0.352-0.091-0.698-0.139-1.037-0.139-0.768 0-1.395 0.174-1.88 0.522s-0.728 0.798-0.728 1.346c0 0.211 0.035 0.405 0.104 0.584 0.069 0.178 0.187 0.344 0.357 0.502 0.171 0.158 0.33 0.291 0.48 0.4 0.149 0.109 0.376 0.234 0.678 0.376 0.302 0.141 0.549 0.251 0.734 0.326 0.186 0.078 0.469 0.19 0.848 0.334 0.429 0.162 0.757 0.29 0.982 0.382 0.227 0.093 0.533 0.234 0.923 0.424 0.387 0.19 0.693 0.363 0.915 0.517 0.222 0.152 0.472 0.355 0.752 0.606 0.278 0.251 0.493 0.507 0.642 0.77 0.15 0.262 0.278 0.571 0.382 0.928 0.106 0.355 0.158 0.736 0.158 1.139 0 1.237-0.403 2.302-1.206 3.197zM16.001 0c-8.838 0-16 7.163-16 16s7.162 16 16 16c8.835 0 16-7.163 16-16s-7.165-16-16-16z"></path>
</svg>
