<!-- Generated by IcoMoon.io -->
<svg version="1.1" xmlns="http://www.w3.org/2000/svg" width="32" height="32" viewBox="0 0 32 32">
<title>person</title>
<path d="M27.201 20.275c-1.091-1.946-2.653-3.063-4.971-3.679-1.758 1.731-4.169 2.801-6.824 2.801-2.658 0-5.070-1.072-6.83-2.801-2.318 0.614-3.882 1.731-4.972 3.679-1.856 3.308-2.874 8.442-2.935 9.057-0.013 0.134 0.048 0.249 0.174 0.275 1.247 0.25 9.235 0.989 14.559 0.991 5.324-0.001 13.314-0.74 14.561-0.991 0.126-0.026 0.187-0.141 0.174-0.275-0.061-0.615-1.079-5.75-2.935-9.057z"></path>
<path d="M15.405 1.455c-4.179 0-7.562 3.405-7.562 7.583 0 4.193 3.382 7.569 7.562 7.569 4.172 0 7.554-3.376 7.554-7.569 0-4.177-3.381-7.583-7.554-7.583z"></path>
</svg>
