<!-- Generated by IcoMoon.io -->
<svg version="1.1" xmlns="http://www.w3.org/2000/svg" width="32" height="32" viewBox="0 0 32 32">
<title>phone</title>
<path d="M32 25.272c0 0.41-0.075 0.943-0.228 1.604-0.151 0.659-0.311 1.178-0.476 1.557-0.318 0.757-1.242 1.56-2.775 2.408-1.423 0.774-2.833 1.16-4.226 1.16-0.41 0-0.809-0.024-1.205-0.079-0.393-0.053-0.83-0.149-1.306-0.284-0.478-0.136-0.834-0.247-1.069-0.329-0.233-0.083-0.655-0.239-1.261-0.467-0.604-0.226-0.977-0.361-1.114-0.408-1.483-0.531-2.81-1.16-3.976-1.886-1.926-1.195-3.925-2.835-6.001-4.909-2.076-2.076-3.712-4.075-4.909-6.001-0.727-1.165-1.355-2.49-1.886-3.976-0.045-0.137-0.183-0.508-0.408-1.114-0.228-0.606-0.382-1.026-0.467-1.261-0.083-0.235-0.192-0.591-0.329-1.069-0.136-0.476-0.232-0.911-0.284-1.306-0.053-0.393-0.079-0.794-0.079-1.205 0-1.393 0.386-2.803 1.16-4.228 0.847-1.53 1.651-2.453 2.409-2.771 0.378-0.168 0.898-0.328 1.557-0.478 0.659-0.152 1.192-0.228 1.602-0.228 0.213 0 0.371 0.023 0.478 0.068 0.271 0.092 0.674 0.668 1.203 1.728 0.168 0.288 0.395 0.696 0.683 1.227 0.286 0.531 0.553 1.011 0.794 1.444 0.243 0.431 0.478 0.838 0.704 1.216 0.045 0.060 0.179 0.25 0.399 0.568 0.22 0.316 0.382 0.587 0.488 0.806 0.107 0.22 0.16 0.437 0.16 0.648 0 0.303-0.216 0.681-0.648 1.137-0.433 0.454-0.902 0.872-1.41 1.25s-0.977 0.781-1.41 1.205c-0.431 0.424-0.646 0.772-0.646 1.045 0 0.137 0.038 0.307 0.113 0.512s0.139 0.36 0.194 0.465c0.051 0.107 0.158 0.288 0.318 0.546 0.158 0.258 0.245 0.401 0.26 0.431 1.152 2.076 2.47 3.857 3.955 5.342s3.266 2.803 5.342 3.953c0.030 0.017 0.173 0.104 0.431 0.264 0.256 0.158 0.439 0.265 0.546 0.318 0.105 0.053 0.26 0.119 0.465 0.194s0.375 0.113 0.512 0.113c0.273 0 0.619-0.216 1.045-0.649 0.425-0.431 0.826-0.9 1.207-1.408 0.378-0.506 0.794-0.977 1.25-1.41 0.454-0.431 0.832-0.646 1.135-0.646 0.213 0 0.429 0.053 0.648 0.158 0.22 0.105 0.489 0.269 0.808 0.488 0.318 0.222 0.506 0.354 0.567 0.399 0.38 0.226 0.785 0.461 1.218 0.704 0.429 0.243 0.911 0.508 1.444 0.796 0.529 0.286 0.939 0.516 1.225 0.68 1.060 0.533 1.636 0.934 1.728 1.207 0.045 0.105 0.068 0.265 0.068 0.476z"></path>
</svg>
