<!-- Generated by IcoMoon.io -->
<svg version="1.1" xmlns="http://www.w3.org/2000/svg" width="32" height="32" viewBox="0 0 32 32">
<title>sermon</title>
<path d="M31.373 15.681c0 8.659-7.024 15.68-15.686 15.68-8.664 0-15.686-7.021-15.686-15.68s7.022-15.68 15.686-15.68c8.663 0 15.686 7.021 15.686 15.68zM11.143 13.538l-0.004 0.016 1.852-0.016h7.932v1.231h-11.077v-1.231h1.297zM19.339 12.308c-0.389-1.309-1.096-2.218-2.097-2.693 0.376-0.432 0.604-0.997 0.604-1.615 0-1.359-1.102-2.462-2.462-2.462s-2.462 1.102-2.462 2.462c0 0.618 0.228 1.183 0.604 1.615-1 0.475-1.707 1.384-2.094 2.692h-2.202c-0.34 0-0.615 0.276-0.615 0.615v2.462c0 0.34 0.276 0.615 0.615 0.615h0.666l0.277 6.794c0.013 0.33 0.285 0.59 0.615 0.59h9.192c0.33 0 0.601-0.26 0.615-0.59l0.277-6.794h0.666c0.34 0 0.615-0.276 0.615-0.615v-2.462c0-0.34-0.276-0.615-0.615-0.615h-2.199zM12.986 12.308h-0.258c0.473-1.262 1.335-1.846 2.656-1.846 1.307 0 2.164 0.571 2.642 1.802l-5.040 0.044zM19.641 16l-0.251 6.154h-8.011l-0.251-6.154h8.513zM15.385 9.231c-0.68 0-1.231-0.551-1.231-1.231s0.551-1.231 1.231-1.231c0.68 0 1.231 0.551 1.231 1.231s-0.551 1.231-1.231 1.231z"></path>
</svg>
