<!-- Generated by IcoMoon.io -->
<svg version="1.1" xmlns="http://www.w3.org/2000/svg" width="32" height="32" viewBox="0 0 32 32">
<title>study_guide</title>
<path d="M31.52 15.681c0 8.659-7.055 15.68-15.76 15.68-8.703 0-15.76-7.021-15.76-15.68s7.057-15.68 15.76-15.68c8.704 0 15.76 7.021 15.76 15.68zM8.849 7.658c-0.516 0-0.933 0.415-0.933 0.927v14.189c0 0.512 0.417 0.927 0.933 0.927h13.822c0.514 0 0.932-0.415 0.932-0.927v-10.255c0-0.033-0.014-0.064-0.038-0.088l-4.738-4.736c-0.023-0.024-0.055-0.038-0.090-0.038h-9.888zM9.535 9.725c0-0.251 0.206-0.455 0.458-0.455h6.711c0.069 0 0.126 0.056 0.126 0.125v4.885c0 0.069 0.057 0.125 0.127 0.125h4.899c0.071 0 0.129 0.058 0.129 0.128v7.104c0 0.251-0.207 0.455-0.459 0.455h-11.534c-0.252 0-0.458-0.204-0.458-0.455v-11.912zM18.448 9.599l3.199 3.196h-3.071c-0.069 0-0.127-0.056-0.127-0.125v-3.071zM11.839 19.971h7.843v-1.278h-7.843v1.278zM11.838 14.408h3.278v-1.278h-3.278v1.278zM11.839 17.186h7.843v-1.278h-7.843v1.278z"></path>
</svg>
