<!-- Generated by IcoMoon.io -->
<svg version="1.1" xmlns="http://www.w3.org/2000/svg" width="32" height="32" viewBox="0 0 32 32">
<title>email</title>
<path d="M32 6.35c0 0.938-0.292 1.835-0.875 2.69s-1.31 1.585-2.179 2.191c-4.476 3.099-7.262 5.029-8.357 5.789-0.119 0.083-0.372 0.264-0.759 0.543s-0.708 0.505-0.964 0.677c-0.256 0.172-0.565 0.365-0.929 0.579s-0.705 0.374-1.027 0.481c-0.321 0.107-0.619 0.16-0.893 0.16h-0.036c-0.274 0-0.571-0.053-0.893-0.16s-0.664-0.267-1.027-0.481c-0.363-0.214-0.673-0.407-0.929-0.579s-0.577-0.398-0.964-0.677c-0.387-0.279-0.64-0.46-0.759-0.543-1.083-0.76-2.643-1.844-4.679-3.251s-3.256-2.253-3.661-2.538c-0.738-0.499-1.435-1.185-2.089-2.057s-0.982-1.683-0.982-2.431c0-0.926 0.247-1.698 0.741-2.316s1.199-0.926 2.116-0.926h26.286c0.774 0 1.443 0.279 2.009 0.837s0.848 1.229 0.848 2.013z"></path>
<path d="M32 11.536v14.119c0 0.782-0.28 1.452-0.839 2.009s-1.232 0.836-2.018 0.836h-26.286c-0.786 0-1.458-0.279-2.018-0.836s-0.839-1.227-0.839-2.009v-14.119c0.524 0.581 1.125 1.097 1.804 1.547 4.31 2.916 7.268 4.961 8.875 6.135 0.679 0.498 1.229 0.886 1.652 1.165s0.985 0.563 1.688 0.854c0.702 0.29 1.357 0.436 1.964 0.436h0.036c0.607 0 1.262-0.145 1.964-0.436s1.265-0.575 1.688-0.854c0.423-0.279 0.973-0.667 1.652-1.165 2.024-1.458 4.988-3.503 8.893-6.135 0.679-0.462 1.274-0.978 1.786-1.547z"></path>
</svg>
