<!-- Generated by IcoMoon.io -->
<svg version="1.1" xmlns="http://www.w3.org/2000/svg" width="32" height="32" viewBox="0 0 32 32">
<title>listen</title>
<path d="M16 32c-8.836 0-16-7.164-16-16s7.164-16 16-16c8.837 0 16 7.164 16 16s-7.163 16-16 16zM24.708 16.71l0.010-0.061c0.008-0.040 0.010-0.078 0.010-0.118 0-0.748-0.033-1.428-0.101-2.030-0.248-2.212-1.19-4.059-2.799-5.494-1.606-1.435-3.557-2.162-5.796-2.162-2.309 0-4.323 0.801-5.987 2.381-1.663 1.581-2.564 3.574-2.675 5.921-0.047 0.576-0.069 0.975-0.069 1.254l0.001 0.148c-0.024 0.187-0.033 0.284-0.033 0.374v4.57c0 0.467 0.174 0.876 0.513 1.215 0.337 0.332 0.767 0.507 1.245 0.507h1.407c0.457 0 0.876-0.177 1.212-0.509 0.335-0.334 0.512-0.753 0.512-1.212v-4.538c0-0.48-0.175-0.91-0.509-1.24-0.339-0.34-0.749-0.515-1.215-0.515h-1.362l0.051-0.445c0.193-1.686 0.888-3.078 2.125-4.255 1.353-1.286 2.918-1.912 4.783-1.912 1.804 0 3.316 0.564 4.627 1.723 1.309 1.161 2.038 2.596 2.227 4.389l0.049 0.454-0.44 0.046h-0.9c-0.48 0-0.91 0.178-1.243 0.512-0.337 0.333-0.513 0.763-0.513 1.243v4.507c0 0.479 0.177 0.909 0.513 1.244 0.335 0.332 0.765 0.508 1.243 0.508h1.376c0.48 0 0.91-0.177 1.247-0.511 0.334-0.334 0.511-0.763 0.511-1.242v-4.507c0-0.061-0.004-0.124-0.013-0.184l-0.008-0.061z"></path>
</svg>
