<!-- Generated by IcoMoon.io -->
<svg version="1.1" xmlns="http://www.w3.org/2000/svg" width="32" height="32" viewBox="0 0 32 32">
<title>search</title>
<path d="M24.174 20.060l7.701 7.701-4.114 4.114-7.701-7.701c-2.018 1.272-4.408 2.007-6.969 2.007-7.23 0-13.091-5.861-13.091-13.091s5.861-13.091 13.091-13.091c7.23 0 13.091 5.861 13.091 13.091 0 2.562-0.736 4.951-2.007 6.969zM13.091 20.364c4.017 0 7.273-3.256 7.273-7.273s-3.256-7.273-7.273-7.273c-4.017 0-7.273 3.256-7.273 7.273s3.256 7.273 7.273 7.273z"></path>
</svg>
