<!-- Generated by IcoMoon.io -->
<svg version="1.1" xmlns="http://www.w3.org/2000/svg" width="32" height="32" viewBox="0 0 32 32">
<title>share</title>
<path d="M31.373 15.681c0 8.659-7.024 15.68-15.686 15.68-8.664 0-15.686-7.021-15.686-15.68s7.022-15.68 15.686-15.68c8.663 0 15.686 7.021 15.686 15.68zM10.218 13.547c0.124 0.286 0.34 0.428 0.648 0.428h2.807v4.912c0 0.189 0.070 0.354 0.208 0.493 0.139 0.139 0.304 0.208 0.494 0.208h2.807c0.191 0 0.355-0.069 0.493-0.208 0.139-0.139 0.208-0.304 0.208-0.493v-4.912h2.808c0.307 0 0.523-0.142 0.648-0.428 0.124-0.3 0.073-0.554-0.154-0.766l-4.913-4.912c-0.132-0.141-0.297-0.208-0.494-0.208s-0.361 0.068-0.493 0.208l-4.914 4.912c-0.227 0.212-0.277 0.467-0.153 0.766zM22.252 18.732c0-0.32-0.25-0.58-0.557-0.58l-1.057-0.003c-0.307 0-0.557 0.26-0.557 0.58l-0.011 2.8-8.772-0.013 0.011-2.785c0-0.32-0.248-0.58-0.557-0.58l-1.057-0.003c-0.307 0-0.557 0.26-0.557 0.58l-0.014 3.329c0 0.005-0.002 0.008-0.002 0.011l-0.001 1.045v0.013c0 0.029 0.013 0.056 0.018 0.084 0.043 0.275 0.262 0.488 0.538 0.489l1.058 0.001c0.026 0 0.049-0.013 0.075-0.016l10.867 0.016c0.030 0 0.058-0.014 0.087-0.019 0.274-0.044 0.486-0.262 0.487-0.537l0.001-1.058c0-0.023-0.010-0.040-0.014-0.061l0.014-3.295z"></path>
</svg>
