<?xml version="1.0" encoding="utf-8"?>
<!-- Generator: Adobe Illustrator 23.0.2, SVG Export Plug-In . SVG Version: 6.00 Build 0)  -->
<svg version="1.1" id="Layer_1" xmlns="http://www.w3.org/2000/svg" xmlns:xlink="http://www.w3.org/1999/xlink" x="0px" y="0px"
	 viewBox="0 0 265 60" style="enable-background:new 0 0 265 60;" xml:space="preserve">
<style type="text/css">
	.st0{fill:#FFFFFF;}
</style>
<title>ChurchLogo_Black</title>
<desc>Created with Sketch.</desc>
<g>
	<g>
		<path class="st0" d="M30.2,41.3c-0.3,0.3-0.6,0.7-0.9,1l3.3,2.5c-1.8,2.3-4.1,4-6.7,5.4c-2.6,1.3-5.8,2-9.5,2
			c-3.5,0-6.6-0.6-9.4-1.7c-2.6-1-4.9-2.5-6.8-4.3C0.6,46.6,1,47,1.4,47.4c2.2,2.1,4.8,3.7,7.8,4.9s6.3,1.8,9.9,1.8
			c3.7,0,7-0.6,9.9-1.9c2.9-1.3,5.3-3,7.3-5.3L30.2,41.3z"/>
		<path class="st0" d="M7,9c2.8-1.1,5.9-1.7,9.4-1.7c2.9,0,5.8,0.6,8.7,1.9c2.9,1.2,5.3,3.1,7.2,5.5l-3.5,2.5
			c0.3,0.4,0.6,0.7,0.9,1.1l6.6-5.3c-1.9-2.5-4.4-4.3-7.6-5.6S22.3,5.5,19,5.5c-3.5,0-6.8,0.6-9.8,1.8s-5.6,2.8-7.8,5
			c-0.5,0.4-0.9,0.9-1.3,1.4C1.9,11.6,4.3,10.1,7,9z"/>
		<path class="st0" d="M7.9,18.1c1.3-1.5,2.9-2.7,4.7-3.6s4-1.4,6.4-1.4c0.7,0,1.4,0.1,2,0.2c-1.4-0.5-3-0.8-4.6-0.8
			c-2.5,0-4.7,0.4-6.8,1.3c-2,0.9-3.7,2.1-5.2,3.6C3.2,19,2.1,20.9,1.3,23s-1.1,4.4-1.1,6.8s0.4,4.7,1.1,6.8
			c0.8,2.1,1.8,3.9,3.2,5.4c1.4,1.6,3.1,2.8,5.1,3.6c2,0.9,4.3,1.3,6.8,1.3c1.8,0,3.4-0.2,4.8-0.7c-0.7,0.1-1.4,0.1-2.1,0.1
			c-2.4,0-4.5-0.5-6.4-1.4s-3.5-2.1-4.8-3.6S5.6,38,4.9,36s-1-4.1-1-6.3s0.3-4.3,1-6.3S6.6,19.7,7.9,18.1z"/>
	</g>
	<g>
		<path class="st0" d="M54.9,40.9c-1.2,0.5-2.6,0.8-4.2,0.8c-1.4,0-2.7-0.2-4-0.7c-1.2-0.5-2.3-1.1-3.1-2c-0.9-0.9-1.6-1.9-2.1-3.1
			c-0.5-1.2-0.8-2.5-0.8-4s0.3-2.8,0.8-4s1.2-2.2,2.1-3.1c0.9-0.8,2-1.5,3.2-1.9c1.2-0.5,2.5-0.7,3.9-0.7c1.3,0,2.6,0.2,3.9,0.7
			c1.3,0.5,2.3,1.1,3.1,2l-3,3c-0.4-0.6-1-1-1.6-1.3c-0.7-0.3-1.4-0.4-2.1-0.4c-0.8,0-1.5,0.1-2.2,0.4s-1.2,0.7-1.7,1.2
			s-0.8,1.1-1.1,1.8c-0.3,0.7-0.4,1.4-0.4,2.3c0,0.8,0.1,1.6,0.4,2.3c0.3,0.7,0.6,1.3,1.1,1.8s1,0.9,1.7,1.2
			c0.6,0.3,1.3,0.4,2.1,0.4c0.9,0,1.7-0.2,2.3-0.5c0.7-0.3,1.2-0.8,1.6-1.4l3.1,2.9C57.1,39.6,56.1,40.4,54.9,40.9z"/>
		<path class="st0" d="M72.5,41.2L71,37.6h-7.2l-1.4,3.6h-4.9l7.8-18.5h4.3l7.7,18.5C77.3,41.2,72.5,41.2,72.5,41.2z M67.5,27.7
			L65.1,34h4.6L67.5,27.7z"/>
		<path class="st0" d="M79,41.2V22.8h4.5v14.6h7.2v3.9H79V41.2z"/>
		<path class="st0" d="M100.4,41.2H96l-7-18.5h5l4.3,13.1h0.1l4.3-13.1h4.9L100.4,41.2z"/>
		<path class="st0" d="M120.1,41.2l-1.4-3.6h-7.2l-1.4,3.6h-4.9l7.8-18.5h4.3l7.7,18.5H120.1z M115.1,27.7l-2.4,6.3h4.6L115.1,27.7z
			"/>
		<path class="st0" d="M136.5,41.2l-4-7.3H131v7.3h-4.4V22.8h7.1c0.9,0,1.8,0.1,2.6,0.3c0.8,0.2,1.6,0.5,2.3,0.9s1.2,1,1.6,1.7
			c0.4,0.7,0.6,1.6,0.6,2.7c0,1.3-0.3,2.3-1,3.2c-0.7,0.9-1.6,1.5-2.8,1.8l4.8,7.9L136.5,41.2L136.5,41.2z M136.3,28.4
			c0-0.4-0.1-0.8-0.3-1.1c-0.2-0.3-0.4-0.5-0.7-0.6s-0.6-0.2-1-0.3c-0.4-0.1-0.7-0.1-1-0.1h-2.4v4.3h2.1c0.4,0,0.7,0,1.1-0.1
			c0.4-0.1,0.7-0.2,1-0.3c0.3-0.2,0.6-0.4,0.8-0.7C136.2,29.3,136.3,28.9,136.3,28.4z"/>
		<path class="st0" d="M152.6,33.4v7.8h-4.5v-7.8l-6.9-10.7h5.4l3.9,6.8l3.9-6.8h5.2L152.6,33.4z"/>
		<path class="st0" d="M176.2,38.2c-0.3,0.5-0.7,0.9-1.1,1.3c-0.4,0.4-1,0.8-1.5,1.1c-0.6,0.3-1.2,0.6-1.9,0.8s-1.5,0.3-2.3,0.3
			c-1.4,0-2.7-0.2-3.9-0.7s-2.2-1.2-3.1-2c-0.9-0.9-1.5-1.9-2-3.1c-0.5-1.2-0.7-2.5-0.7-3.9c0-1.4,0.2-2.7,0.7-3.9
			c0.5-1.2,1.2-2.2,2-3.1c0.9-0.9,1.9-1.5,3.1-2c1.2-0.5,2.4-0.7,3.8-0.7c0.7,0,1.3,0.1,2,0.2s1.3,0.3,1.8,0.6
			c0.6,0.3,1.1,0.6,1.6,0.9c0.5,0.4,0.9,0.8,1.2,1.2l-1.6,1.1c-0.2-0.3-0.4-0.6-0.8-0.9c-0.3-0.3-0.7-0.6-1.1-0.8
			c-0.4-0.2-0.9-0.4-1.4-0.5s-1.1-0.2-1.7-0.2c-1.2,0-2.3,0.2-3.2,0.7c-0.9,0.4-1.8,1-2.4,1.8c-0.7,0.7-1.2,1.6-1.5,2.6
			s-0.5,2-0.5,3.1c0,1.1,0.2,2.1,0.5,3.1c0.4,1,0.9,1.8,1.5,2.6c0.7,0.7,1.5,1.3,2.4,1.8c0.9,0.4,2,0.7,3.2,0.7c1.1,0,2.1-0.2,3-0.7
			c1-0.4,1.8-1.1,2.4-2.1L176.2,38.2z"/>
		<path class="st0" d="M179.4,22.8h1.9v8h10.1v-8h1.9v18.5h-1.9v-8.7h-10.1v8.7h-1.9V22.8z"/>
		<path class="st0" d="M205,41.7c-1.4,0-2.5-0.2-3.4-0.7s-1.6-1.1-2.1-1.8s-0.9-1.5-1.1-2.4c-0.2-0.9-0.3-1.7-0.3-2.4V22.8h1.9v11.4
			c0,0.7,0.1,1.5,0.3,2.2s0.5,1.3,0.8,1.9c0.4,0.5,0.9,1,1.6,1.3c0.6,0.3,1.4,0.5,2.4,0.5c0.9,0,1.7-0.2,2.4-0.5
			c0.6-0.3,1.2-0.8,1.6-1.3c0.4-0.5,0.7-1.2,0.8-1.9c0.2-0.7,0.3-1.4,0.3-2.2V22.8h1.9v11.6c0,0.8-0.1,1.6-0.3,2.4
			c-0.2,0.9-0.6,1.7-1.1,2.4s-1.2,1.3-2.1,1.8C207.5,41.5,206.4,41.7,205,41.7z"/>
		<path class="st0" d="M218.6,41.2h-1.9V22.8h5.4c0.9,0,1.7,0.1,2.5,0.3c0.8,0.2,1.4,0.5,2,0.8c0.6,0.4,1,0.9,1.3,1.5
			s0.5,1.4,0.5,2.3c0,0.7-0.1,1.3-0.4,1.9c-0.2,0.6-0.6,1-1,1.4c-0.4,0.4-0.9,0.7-1.5,1c-0.6,0.2-1.2,0.4-1.9,0.5l5.4,8.8h-2.3
			l-5.1-8.6h-3.1v8.5H218.6z M218.6,31h3.3c1.5,0,2.7-0.3,3.5-0.8s1.2-1.4,1.2-2.5c0-0.6-0.1-1.1-0.3-1.5s-0.5-0.8-0.9-1
			c-0.4-0.3-0.9-0.5-1.5-0.6s-1.2-0.2-1.9-0.2h-3.3V31H218.6z"/>
		<path class="st0" d="M247.9,38.2c-0.3,0.5-0.7,0.9-1.1,1.3c-0.4,0.4-1,0.8-1.5,1.1c-0.6,0.3-1.2,0.6-1.9,0.8s-1.5,0.3-2.3,0.3
			c-1.4,0-2.7-0.2-3.9-0.7s-2.2-1.2-3.1-2c-0.9-0.9-1.5-1.9-2-3.1c-0.5-1.2-0.7-2.5-0.7-3.9c0-1.4,0.2-2.7,0.7-3.9
			c0.5-1.2,1.2-2.2,2-3.1c0.9-0.9,1.9-1.5,3.1-2c1.2-0.5,2.4-0.7,3.8-0.7c0.7,0,1.3,0.1,2,0.2s1.3,0.3,1.8,0.6
			c0.6,0.3,1.1,0.6,1.6,0.9c0.5,0.4,0.9,0.8,1.2,1.2l-1.6,1.1c-0.2-0.3-0.4-0.6-0.8-0.9c-0.3-0.3-0.7-0.6-1.1-0.8
			c-0.4-0.2-0.9-0.4-1.4-0.5s-1.1-0.2-1.7-0.2c-1.2,0-2.3,0.2-3.2,0.7c-0.9,0.4-1.8,1-2.4,1.8c-0.7,0.7-1.2,1.6-1.5,2.6
			s-0.5,2-0.5,3.1c0,1.1,0.2,2.1,0.5,3.1c0.4,1,0.9,1.8,1.5,2.6c0.7,0.7,1.5,1.3,2.4,1.8c0.9,0.4,2,0.7,3.2,0.7c1.1,0,2.1-0.2,3-0.7
			c1-0.4,1.8-1.1,2.4-2.1L247.9,38.2z"/>
		<path class="st0" d="M251.2,22.8h1.9v8h10.1v-8h1.9v18.5h-1.9v-8.7H253v8.7h-1.9L251.2,22.8L251.2,22.8z"/>
	</g>
</g>
</svg>
